<?xml version="1.0" encoding="UTF-8"?>
<svg id="Layer_1" data-name="Layer 1" xmlns="http://www.w3.org/2000/svg" viewBox="0 0 2415.38 2247.47">
  <defs>
    <style>
      .cls-1 {
        fill: #fff;
        stroke-width: 0px;
      }
    </style>
  </defs>
  <path class="cls-1" d="M600.78,1933.61c-158.07,0-286.67-128.98-286.67-287.52,0-1.69.04-3.8.06-5.49l.07-3.64c1.13-49.13,14.63-95.78,40.13-138.66l271.41-455.74c36.85-61.87,26.99-140.86-23.93-191.78h0c-72.56-72.56-194.04-57.37-246.5,30.81l-270.88,455.32C19.43,1446.29-8.25,1570.57,2.12,1696.3h0s0,0,0,0h0s0,0,0,0h0s-.14.02-.14.02c12.97,141.24,73.73,274.21,173.94,374.42,113.97,113.96,264.99,176.73,424.86,176.73h533.58c86.67,0,156.93-70.26,156.93-156.93h0c0-86.67-70.26-156.93-156.93-156.93h-533.58Z"/>
  <path class="cls-1" d="M2239.49,1221.49c-112.85-112.85-263.66-175-424.64-175h-158.93l81.62-138.1c82.06-137.95,105.47-299.65,65.92-455.32-39.54-155.64-137.22-286.5-275.04-368.48C1435.39,29.25,1329.36,0,1221.82,0s-203.52,26.24-292.76,75.88c-92.25,51.31-169.67,126.57-223.84,217.62l-18.35,30.84c-36.77,61.8-26.91,140.68,23.94,191.53h0c72.52,72.52,193.94,57.3,246.31-30.88l17.92-30.16c52.38-88.06,144.64-140.63,246.8-140.63,51.46,0,101.99,13.88,146.13,40.14,65.83,39.16,112.46,101.55,131.29,175.68,18.95,74.59,7.77,152.01-31.47,217.98l-177.6,299.4-.44.73c-81.67,137.29,16.71,311.36,176.45,312.23h348.64c2.47,0,4.93.03,7.39.09,153.92,3.91,278.07,129.72,279.27,284.26,1.24,158.89-130.93,288.89-289.83,288.89h-49.6c-86.67,0-156.93,70.26-156.93,156.93h0c0,86.67,70.26,156.93,156.93,156.93h52.77c159.86,0,310.66-62.77,424.64-176.74,113.42-113.42,175.89-264.22,175.89-424.62s-62.47-311.19-175.89-424.62ZM1814.85,1936.2c2.48,0,4.96-.03,7.42-.09-2.47.06-4.94.09-7.42.09Z"/>
</svg>